# AST/ASF file generated using VICON BodyLanguage
# -----------------------------------------------
:version 1.10
:name VICON
:units
  mass 1.0
  length 0.45
  angle deg
:documentation
   .ast/.asf automatically generated from VICON data using
   VICON BodyBuilder and BodyLanguage model FoxedUp or BRILLIANT.MOD
:root
   order TX TY TZ RX RY RZ
   axis XYZ
   position 0 0 0  
   orientation 0 0 0 
:bonedata
  begin
     id 1 
     name lhipjoint
     direction 0.700308 -0.549349 0.455834 
     length 2.59063 
     axis 0 0 0  XYZ
  end
  begin
     id 2 
     name lfemur
     direction 0.34202 -0.939693 0  
     length 6.31066  
     axis 0 0 20  XYZ
    dof rx ry rz
    limits (-160.0 20.0)
           (-70.0 70.0)
           (-60.0 70.0)
  end
  begin
     id 3 
     name ltibia
     direction 0.34202 -0.939693 0   
     length 7.36093   
     axis 0 0 20   XYZ
    dof rx
    limits (-10.0 170.0)
  end
  begin
     id 4 
     name lfoot
     direction 0.0905332 -0.248738 0.96433   
     length 2.0233   
     axis -90 7.62852e-016 20   XYZ
    dof rx rz
    limits (-45.0 90.0)
           (-70.0 20.0)
  end
  begin
     id 5 
     name ltoes
     direction 1.53573e-011 -4.21855e-011 1   
     length 1.01524   
     axis -90 7.62852e-016 20   XYZ
    dof rx
    limits (-90.0 20.0)
  end
  begin
     id 6 
     name rhipjoint
     direction -0.61416 -0.607328 0.503944   
     length 2.34332  
     axis 0 0 0  XYZ 
  end
  begin
     id 7 
     name rfemur
     direction -0.34202 -0.939693 0   
     length 6.58548   
     axis 0 0 -20   XYZ
    dof rx ry rz
    limits (-160.0 20.0)
           (-70.0 70.0)
           (-70.0 60.0)
  end
  begin
     id 8 
     name rtibia
     direction -0.34202 -0.939693 0   
     length 7.20707   
     axis 0 0 -20   XYZ
    dof rx
    limits (-10.0 170.0)
 end
 begin
     id 9 
     name rfoot
     direction -0.136772 -0.375778 0.916561   
     length 1.92184  
     axis -90 -7.62852e-016 -20   XYZ
    dof rx rz
    limits (-45.0 90.0)
           (-20.0 70.0)
  end
  begin
     id 10 
     name rtoes
     direction -1.53535e-011 -4.21828e-011 1   
     length 0.951089   
     axis -90 -7.62852e-016 -20   XYZ
    dof rx
    limits (-90.0 20.0)
  end
  begin
     id 11 
     name lowerback
     direction -0.0444974 0.988086 -0.147332   
     length 1.9609   
     axis 0 0 0   XYZ
    dof rx ry rz
    limits (-20.0 45.0)
           (-30.0 30.0)
           (-30.0 30.0)
  end
  begin
     id 12 
     name upperback
     direction 0.00613146 0.999513 0.0306081   
     length 1.94944   
     axis 0 0 0   XYZ
    dof rx ry rz
    limits (-20.0 45.0)
           (-30.0 30.0)
           (-30.0 30.0)
  end
  begin
     id 13 
     name thorax
     direction 0.0254621 0.994518 0.101418   
     length 2.0119   
     axis 0 0 0   XYZ
    dof rx ry rz
    limits (-20.0 45.0)
           (-30.0 30.0)
           (-30.0 30.0)
  end
  begin
     id 14 
     name lowerneck
     direction 0.0168698 0.977854 0.208608   
     length 1.6375   
     axis 0 0 0   XYZ
    dof rx ry rz
    limits (-20.0 45.0)
           (-30.0 30.0)
           (-30.0 30.0)
  end
  begin
     id 15 
     name upperneck
     direction -0.0283988 0.989338 -0.142843   
     length 1.6851   
     axis 0 0 0   XYZ
    dof rx ry rz
    limits (-20.0 45.0)
           (-30.0 30.0)
           (-30.0 30.0)
  end
  begin
     id 16
     name head
     direction -0.0129422 0.99741 -0.0707489  
     length 1.69029  
     axis 0 0 0   XYZ
    dof rx ry rz
    limits (-20.0 45.0)
           (-30.0 30.0)
           (-30.0 30.0)
  end
  begin
     id 17 
     name lclavicle
     direction 0.820295 0.564628 -0.0911715  
     length 3.16484  
     axis 0 0 0   XYZ
    dof ry rz
    limits (-20.0 10.0)
           (0.0 20.0)
  end
  begin
     id 18 
     name lhumerus
     direction 1 -4.48969e-011 1.00186e-027   
     length 5.17853   
     axis 180 -30 -90   XYZ
    dof rx ry rz
    limits (-60.0 90.0)
           (-90.0 90.0)
           (-90.0 90.0)
  end
  begin
     id 19
     name lradius
     direction 1 -4.48966e-011 -1.52922e-027   
     length 3.40399   
     axis 180 -30 -90   XYZ
    dof rx
    limits (-10.0 170.0)
  end
  begin
     id 20
     name lwrist
     direction 1 -4.48981e-011 -3.80893e-027   
     length 1.70199   
     axis 1.1049e-015 90 90   XYZ
    dof ry
    limits (-180.0 0.0)
 end
  begin
     id 21 
     name lhand
     direction 1 -4.48957e-011 -7.61786e-027   
     length 0.708964   
     axis 4.86085e-015 90 90   XYZ
    dof rx rz
    limits (-90.0 90.0)
           (-45.0 45.0)
  end
  begin
     id 22 
     name lfingers
     direction 1 -4.48929e-011 -1.52357e-026   
     length 0.571585   
     axis 9.7217e-015 90 90   XYZ
    dof rx
    limits (0.0 90.0)
  end
  begin
     id 23
     name lthumb
     direction 0.707107 -6.34905e-011 0.707107   
     length 0.820685   
     axis -90 45 2.85299e-015   XYZ
    dof rx rz
    limits (-45.0 45.0)
           (-45.0 45.0)
  end
  begin
     id 24 
     name rclavicle
     direction -0.858602 0.463947 -0.218075   
     length 3.35137  
     axis 0 0 0   XYZ 
    dof ry rz
    limits (-10.0 20.0)
           (-20.0 0.0)
  end
  begin
     id 25 
     name rhumerus
     direction -1 -4.48969e-011 -1.98511e-027  
     length 5.42351   
     axis 180 30 90   XYZ
    dof rx ry rz
    limits (-90.0 60.0)
           (-90.0 90.0)
           (-90.0 90.0)
  end
  begin
     id 26 
     name rradius
     direction -1 -4.48961e-011 -2.82624e-027   
     length 3.42066   
     axis 180 30 90   XYZ
    dof rx
    limits (-10.0 170.0)
  end
  begin
     id 27 
     name rwrist
     direction -1 -4.48966e-011 -3.80893e-027   
     length 1.71033   
     axis 1.1049e-015 -90 -90   XYZ
    dof ry
    limits (-180.0 0.0)
  end
  begin
     id 28
     name rhand
     direction -1 -4.48964e-011 -7.61786e-027   
     length 0.743608   
     axis 4.86085e-015 -90 -90   XYZ
    dof rx rz
    limits (-90.0 90.0)
           (-45.0 45.0)
  end
  begin
     id 29
     name rfingers
     direction -1 -4.48961e-011 -1.52357e-026   
     length 0.599516   
     axis 9.7217e-015 -90 -90   XYZ
    dof rx
    limits (0.0 90.0)
  end
  begin
     id 30
     name rthumb
     direction -0.707107 -6.34913e-011 0.707107   
     length 0.860789   
     axis -90 -45 -2.85299e-015   XYZ
    dof rx rz
    limits (-45.0 45.0)
           (-45.0 45.0)
  end
:hierarchy
  begin
    root lhipjoint rhipjoint lowerback
    lhipjoint lfemur
    lfemur ltibia
    ltibia lfoot
    lfoot ltoes
    rhipjoint rfemur
    rfemur rtibia
    rtibia rfoot
    rfoot rtoes
    lowerback upperback
    upperback thorax
    thorax lowerneck lclavicle rclavicle
    lowerneck upperneck
    upperneck head
    lclavicle lhumerus
    lhumerus lradius
    lradius lwrist
    lwrist lhand lthumb
    lhand lfingers
    rclavicle rhumerus
    rhumerus rradius
    rradius rwrist
    rwrist rhand rthumb
    rhand rfingers
  end

#!OML:ASF E:\mmandel\Project 1\Capture day 1\Session 2\Subject.ASF
:FULLY-SPECIFIED
:DEGREES
3340
root 10.0473 14.9835 1.43583 807.768 83.9259 789.352
lowerback 17.6991 1.21144 -3.09492
upperback 2.70756 1.10622 -0.652116
thorax -7.04729 0.667265 0.793158
lowerneck -15.3043 1.20574 3.62291
upperneck 4.62012 1.35934 -4.61241
head 3.8985 0.499097 -1.90243
rclavicle -4.77083e-015 7.95139e-016
rhumerus -6.08246 9.47062 -75.256
rradius 63.0291
rwrist -21.4569
rhand -13.5127 27.4985
rfingers 7.12502
rthumb 12.5989 -2.10162
lclavicle -4.77083e-015 7.95139e-016
lhumerus -22.0681 -12.7193 79.974
lradius 66.8143
lwrist 26.0687
lhand -14.1341 -32.9034
lfingers 7.12502
lthumb 11.9998 -3.26741
rfemur -51.0516 -11.7965 9.39698
rtibia 64.2929
rfoot -30.8218 -4.3334
rtoes -16.0689
lfemur -41.3102 17.1733 -10.6013
ltibia 42.8482
lfoot -13.754 -3.24215
ltoes -23.0539
3341
root 10.0512 14.9789 1.38671 806.307 83.9455 787.972
lowerback 17.7739 1.26712 -2.99986
upperback 2.71172 1.19399 -0.659398
thorax -7.08489 0.707586 0.709418
lowerneck -15.3778 1.23641 3.68968
upperneck 4.81439 1.38576 -4.58355
head 3.97114 0.512336 -1.90251
rclavicle 2.78299e-015 -3.97569e-015
rhumerus -6.04654 9.14835 -75.2682
rradius 63.1483
rwrist -21.4166
rhand -13.8074 27.6542
rfingers 7.12502
rthumb 12.3148 -1.96319
lclavicle 2.78299e-015 -3.97569e-015
lhumerus -21.9308 -12.9433 79.8067
lradius 66.6404
lwrist 26.0975
lhand -14.1754 -32.8733
lfingers 7.12502
lthumb 11.96 -3.23501
rfemur -50.9268 -11.7521 9.2281
rtibia 64.2209
rfoot -30.7805 -4.27142
rtoes -16.0133
lfemur -41.2958 17.3169 -10.6819
ltibia 43.1544
lfoot -14.1774 -3.48964
ltoes -22.4989
3342
root 10.0579 14.9732 1.33845 803.415 84.0811 785.234
lowerback 17.8995 1.37142 -2.86606
upperback 2.75124 1.35718 -0.612524
thorax -7.11463 0.783966 0.643063
lowerneck -15.4203 1.22656 3.88802
upperneck 4.89557 1.34387 -4.69356
head 4.00336 0.488102 -1.97214
rclavicle 8.74653e-015 -3.65764e-014
rhumerus -5.96328 8.83345 -75.2966
rradius 63.2025
rwrist -21.39
rhand -13.8113 27.8446
rfingers 7.12502
rthumb 12.3111 -1.77302
lclavicle 8.74653e-015 -3.65764e-014
lhumerus -21.8333 -13.0969 79.6622
lradius 66.5813
lwrist 26.0399
lhand -14.1322 -32.5188
lfingers 7.12502
lthumb 12.0016 -2.88287
rfemur -50.7246 -11.539 9.21956
rtibia 64.1382
rfoot -30.7457 -4.31364
rtoes -16.2876
lfemur -41.2061 17.504 -10.5208
ltibia 43.502
lfoot -14.4505 -3.7478
ltoes -21.4681
3343
root 10.0611 14.9708 1.29021 801.595 84.1248 783.537
lowerback 17.9796 1.42025 -2.87068
upperback 2.81548 1.42664 -0.542536
thorax -7.09298 0.81871 0.703318
lowerneck -15.3005 1.21927 4.03225
upperneck 4.68606 1.31558 -4.80518
head 3.92063 0.47372 -2.03189
rclavicle -1.66979e-014 0
rhumerus -5.68144 8.63046 -75.2809
rradius 63.1266
rwrist -21.3694
rhand -13.7048 27.9051
rfingers 7.12502
rthumb 12.4137 -1.70632
lclavicle -1.66979e-014 0
lhumerus -21.6693 -13.0593 79.5627
lradius 66.4277
lwrist 25.9752
lhand -14.074 -32.4057
lfingers 7.12502
lthumb 12.0577 -2.77307
rfemur -50.5854 -11.4746 9.11631
rtibia 64.07
rfoot -30.6175 -4.48532
rtoes -17.5611
lfemur -41.2664 17.723 -10.5752
ltibia 43.9061
lfoot -14.7496 -3.91164
ltoes -22.0458
3344
root 10.0613 14.9692 1.23915 800.357 84.2279 782.375
lowerback 18.0201 1.40998 -2.78285
upperback 2.88629 1.43862 -0.463542
thorax -7.03895 0.823263 0.735462
lowerneck -15.2743 1.23305 4.01887
upperneck 4.58334 1.32679 -4.71031
head 3.88431 0.485474 -1.99917
rclavicle 4.37326e-015 1.43125e-014
rhumerus -5.55421 8.40916 -75.2629
rradius 63.3092
rwrist -21.278
rhand -13.5847 27.8105
rfingers 7.12502
rthumb 12.5295 -1.79381
lclavicle 4.37326e-015 1.43125e-014
lhumerus -21.449 -13.011 79.4358
lradius 66.2104
lwrist 25.9521
lhand -14.1309 -32.571
lfingers 7.12502
lthumb 12.0029 -2.93519
rfemur -50.5006 -11.4906 9.05476
rtibia 64.0122
rfoot -30.4852 -4.60071
rtoes -18.7179
lfemur -41.4669 18.0136 -10.6729
ltibia 44.3749
lfoot -15.005 -4.11787
ltoes -22.5518
3345
root 10.0561 14.9591 1.18764 801.634 84.3445 783.589
lowerback 17.9459 1.3242 -2.64396
upperback 2.90073 1.3574 -0.440441
thorax -6.97782 0.780442 0.702563
lowerneck -15.3376 1.17708 4.05004
upperneck 4.63474 1.23094 -4.55968
head 3.90453 0.445961 -1.96496
rclavicle -8.74653e-015 1.59028e-015
rhumerus -5.64197 8.08191 -75.3325
rradius 63.647
rwrist -21.1618
rhand -13.4385 27.6702
rfingers 7.12502
rthumb 12.6705 -1.92548
lclavicle -8.74653e-015 1.59028e-015
lhumerus -21.2875 -13.0844 79.2321
lradius 66.1135
lwrist 25.9655
lhand -14.3086 -32.4513
lfingers 7.12502
lthumb 11.8316 -2.80552
rfemur -50.5597 -11.7325 8.93114
rtibia 63.987
rfoot -30.4113 -4.49656
rtoes -18.7916
lfemur -41.9701 18.1315 -10.8884
ltibia 44.8701
lfoot -15.0984 -4.49244
ltoes -21.7461
3346
root 10.0488 14.95 1.13711 803.164 84.3559 785.024
lowerback 17.9857 1.29134 -2.65005
upperback 2.8062 1.30783 -0.423023
thorax -7.10042 0.757064 0.734412
lowerneck -15.3399 1.11072 4.20302
upperneck 4.70143 1.11841 -4.62049
head 3.92175 0.389161 -2.01746
rclavicle -9.14409e-015 1.43125e-014
rhumerus -5.80792 7.75588 -75.3648
rradius 63.8201
rwrist -21.0985
rhand -13.3168 27.6948
rfingers 7.12502
rthumb 12.7878 -1.89357
lclavicle -9.14409e-015 1.43125e-014
lhumerus -21.2058 -13.2936 79.0957
lradius 65.9567
lwrist 26.007
lhand -14.435 -32.3315
lfingers 7.12502
lthumb 11.7096 -2.67873
rfemur -50.6531 -11.9945 8.7009
rtibia 63.9407
rfoot -30.268 -4.32894
rtoes -18.4946
lfemur -42.5175 18.2272 -11.2236
ltibia 45.3338
lfoot -15.1795 -4.89622
ltoes -20.8626
3347
root 10.0535 14.9518 1.08534 799.775 84.3545 781.716
lowerback 18.1371 1.40995 -2.73525
upperback 2.77947 1.4468 -0.3369
thorax -7.22053 0.827851 0.838287
lowerneck -15.4643 1.15209 4.04585
upperneck 4.86373 1.19511 -4.52736
head 3.99314 0.426927 -1.95758
rclavicle 2.62396e-014 3.65764e-014
rhumerus -5.80435 7.65108 -75.3002
rradius 63.8712
rwrist -21.0994
rhand -13.3928 27.7789
rfingers 7.12502
rthumb 12.7146 -1.81405
lclavicle 2.62396e-014 3.65764e-014
lhumerus -21.1037 -13.3383 79.0373
lradius 65.7451
lwrist 25.8659
lhand -14.5039 -32.4406
lfingers 7.12502
lthumb 11.6432 -2.7841
rfemur -50.5566 -11.8147 8.57618
rtibia 63.8087
rfoot -30.1302 -4.27211
rtoes -18.7021
lfemur -42.6043 18.5597 -11.3093
ltibia 45.7577
lfoot -15.4188 -5.09983
ltoes -20.1612
3348
root 10.0598 14.957 1.03426 795.529 84.2401 777.522
lowerback 18.0893 1.55241 -2.89753
upperback 2.84346 1.61084 -0.276409
thorax -7.13735 0.910877 0.957695
lowerneck -15.5863 1.1416 3.6733
upperneck 4.97362 1.22385 -4.20899
head 4.04259 0.450079 -1.79647
rclavicle 1.31198e-014 3.57812e-014
rhumerus -5.56212 7.54642 -75.2675
rradius 63.864
rwrist -21.0578
rhand -13.4996 27.7088
rfingers 7.12502
rthumb 12.6116 -1.89047
lclavicle 1.31198e-014 3.57812e-014
lhumerus -20.9364 -13.2092 78.9651
lradius 65.6514
lwrist 25.6366
lhand -14.4755 -32.5352
lfingers 7.12502
lthumb 11.6706 -2.88025
rfemur -50.5381 -11.5981 8.43209
rtibia 63.6747
rfoot -30.0202 -4.31299
rtoes -19.5583
lfemur -42.6454 19.0296 -11.4808
ltibia 46.1712
lfoot -15.4662 -5.38731
ltoes -18.0687
3349
root 10.0581 14.9524 0.98366 792.544 84.1225 774.526
lowerback 18.0106 1.68638 -3.0493
upperback 2.88008 1.76317 -0.245761
thorax -7.06651 0.987435 1.04249
lowerneck -15.6085 1.09027 3.46988
upperneck 5.03321 1.16946 -3.92925
head 4.05879 0.43458 -1.6812
rclavicle 1.78906e-014 -2.22639e-014
rhumerus -5.41398 7.24413 -75.2914
rradius 63.9035
rwrist -20.9368
rhand -13.4876 27.6946
rfingers 7.12502
rthumb 12.6232 -1.904
lclavicle 1.78906e-014 -2.22639e-014
lhumerus -20.7553 -13.2456 78.8643
lradius 65.5552
lwrist 25.5903
lhand -14.4196 -32.6472
lfingers 7.12502
lthumb 11.7245 -2.99535
rfemur -50.6119 -11.4847 8.26951
rtibia 63.5529
rfoot -29.8458 -4.33985
rtoes -20.2436
lfemur -42.8136 19.5347 -11.7401
ltibia 46.5582
lfoot -15.2902 -5.84218
ltoes -15.1105
3350
root 10.0576 14.9321 0.931382 790.33 84.0707 772.299
lowerback 17.8741 1.79217 -3.14535
upperback 2.94642 1.89311 -0.217196
thorax -6.93032 1.05126 1.10116
lowerneck -15.5322 1.13345 3.42
upperneck 5.00341 1.22665 -3.80631
head 4.03835 0.46968 -1.63044
rclavicle 6.75868e-015 1.43125e-014
rhumerus -5.44274 6.98864 -75.2725
rradius 64.098
rwrist -20.896
rhand -13.4554 27.7887
rfingers 7.12502
rthumb 12.6541 -1.80799
lclavicle 6.75868e-015 1.43125e-014
lhumerus -20.5094 -13.4318 78.7073
lradius 65.4263
lwrist 25.7483
lhand -14.5253 -32.5905
lfingers 7.12502
lthumb 11.6226 -2.93286
rfemur -50.7034 -11.4003 8.1073
rtibia 63.4964
rfoot -29.6797 -4.29723
rtoes -20.5147
lfemur -43.0655 19.9204 -11.9376
ltibia 47.005
lfoot -15.4915 -6.05069
ltoes -14.6166
3351
root 10.0589 14.934 0.879249 789.646 83.9704 771.578
lowerback 17.5754 1.82705 -3.28597
upperback 3.11979 1.93318 -0.208575
thorax -6.58805 1.07081 1.19163
lowerneck -15.7962 1.08434 3.27145
upperneck 4.97453 1.18538 -3.80105
head 4.06858 0.445335 -1.60787
rclavicle 9.14409e-015 7.95139e-016
rhumerus -5.29917 6.81695 -75.1647
rradius 64.2849
rwrist -20.9667
rhand -13.3176 27.8985
rfingers 7.12502
rthumb 12.787 -1.68986
lclavicle 9.14409e-015 7.95139e-016
lhumerus -20.0515 -13.5316 78.5185
lradius 65.2557
lwrist 25.9427
lhand -14.6069 -32.4859
lfingers 7.12502
lthumb 11.5439 -2.8238
rfemur -50.7115 -11.508 7.87443
rtibia 63.358
rfoot -29.5705 -4.13855
rtoes -20.2786
lfemur -43.3172 20.1356 -12.3046
ltibia 47.3884
lfoot -15.8865 -6.0467
ltoes -15.5016
3352
root 10.0594 14.934 0.821221 788.949 83.926 770.911
lowerback 17.6364 1.81575 -3.32037
upperback 3.1236 1.91203 -0.181968
thorax -6.6179 1.06198 1.24289
lowerneck -15.8702 1.24329 3.97516
upperneck 5.08303 1.32344 -4.51918
head 4.12986 0.484305 -1.93372
rclavicle -2.0276e-014 2.22639e-014
rhumerus -5.25141 6.73097 -75.0983
rradius 64.3718
rwrist -20.9318
rhand -13.156 27.9711
rfingers 7.12502
rthumb 12.9428 -1.6075
lclavicle -2.0276e-014 2.22639e-014
lhumerus -19.8601 -13.5467 78.3914
lradius 65.0756
lwrist 25.9315
lhand -14.8233 -32.6929
lfingers 7.12502
lthumb 11.3351 -3.01926
rfemur -50.6337 -11.7517 7.69405
rtibia 63.2166
rfoot -29.4764 -3.83268
rtoes -19.8264
lfemur -43.5075 20.316 -12.6119
ltibia 47.8031
lfoot -15.9873 -6.18057
ltoes -14.7381
